<svg xmlns="http://www.w3.org/2000/svg" version="1.0" width="522.000000pt" height="144.000000pt" viewBox="0 0 522.000000 144.000000" preserveAspectRatio="xMidYMid meet">

<g transform="translate(0.000000,144.000000) scale(0.100000,-0.100000)" fill="#ffffff" stroke="none">
<path d="M128 1240 c-20 -11 -45 -35 -57 -53 -20 -34 -21 -45 -21 -467 0 -422 1 -433 21 -467 12 -18 38 -42 60 -53 37 -19 61 -20 589 -20 528 0 552 1 589 20 22 11 48 35 60 53 20 33 21 46 21 423 l0 389 -24 36 c-46 68 -54 69 -431 69 l-336 0 -42 29 c-87 59 -95 61 -249 61 -121 -1 -149 -4 -180 -20z m371 -112 l65 -43 353 -5 c401 -6 384 -2 387 -86 l1 -49 -585 0 -585 0 0 93 c0 129 4 132 173 132 l126 0 65 -42z m806 -546 l0 -274 -24 -19 c-22 -18 -46 -19 -561 -19 -515 0 -539 1 -561 19 l-24 19 -2 267 c-2 147 0 271 3 276 3 5 259 8 587 6 l582 -2 0 -273z" fill="#ffffff"/>
<path d="M674 801 c-36 -16 -64 -60 -64 -103 0 -76 46 -128 113 -128 31 0 46 7 73 34 30 30 34 40 34 85 0 41 -5 56 -27 81 -30 34 -89 48 -129 31z m103 -53 c34 -31 31 -82 -6 -119 -44 -43 -87 -35 -116 21 -20 39 -19 62 6 94 27 34 82 36 116 4z" fill="#ffffff"/>
<path d="M650 521 c-72 -22 -119 -63 -145 -124 -11 -28 -13 -42 -5 -57 10 -19 22 -20 219 -20 163 0 211 3 220 14 36 43 -55 163 -141 184 -52 13 -110 14 -148 3z m163 -45 c39 -16 97 -79 97 -106 0 -18 -9 -19 -187 -17 -122 1 -188 6 -190 13 -6 19 42 78 82 101 47 27 146 31 198 9z" fill="#ffffff"/>
<path d="M4300 1028 c0 -7 15 -20 33 -28 l32 -15 3 -92 3 -92 -29 29 c-16 16 -45 32 -65 35 -132 25 -209 -77 -194 -257 8 -93 36 -144 94 -170 65 -29 118 -20 160 26 l32 35 7 -35 6 -34 69 0 c53 0 69 3 69 14 0 8 -14 17 -30 21 -17 4 -35 15 -40 25 -6 11 -10 128 -10 284 l0 266 -70 0 c-49 0 -70 -4 -70 -12z m9 -223 c41 -21 56 -66 56 -165 -1 -106 -18 -144 -73 -160 -76 -23 -121 20 -129 124 -14 167 48 252 146 201z" fill="#ffffff"/>
<path d="M1868 1002 c-167 -2 -198 -5 -198 -17 0 -9 10 -15 24 -15 50 0 56 -26 56 -247 0 -111 -4 -213 -9 -226 -6 -16 -21 -28 -40 -32 -17 -4 -31 -13 -31 -21 0 -12 36 -14 215 -14 l215 0 0 39 c0 21 3 53 6 70 6 28 4 31 -20 31 -21 0 -26 -5 -26 -25 0 -14 -11 -37 -25 -50 -22 -23 -32 -25 -115 -25 l-90 0 0 120 0 120 95 0 c88 0 95 1 95 20 0 19 -7 20 -95 20 l-95 0 0 105 0 105 83 0 c93 0 109 -9 122 -67 5 -23 12 -33 26 -33 17 0 19 8 19 69 0 39 -3 71 -7 73 -5 2 -97 2 -205 0z" fill="#ffffff"/>
<path d="M2981 869 c-28 -17 -39 -18 -64 -10 -72 26 -154 3 -187 -51 -36 -59 -21 -170 27 -197 17 -9 16 -11 -5 -33 -25 -28 -29 -79 -7 -98 19 -16 19 -30 1 -30 -27 0 -65 -41 -72 -77 -9 -49 15 -95 62 -118 48 -22 192 -18 242 9 61 32 88 111 62 180 -16 44 -53 59 -159 65 -88 6 -96 8 -99 27 -4 30 24 49 78 51 98 3 145 54 137 147 -2 28 -8 61 -12 74 -6 17 -4 22 11 22 9 0 25 -7 35 -15 15 -14 18 -14 33 0 21 21 20 31 -4 55 -25 25 -37 25 -79 -1z m-77 -58 c23 -25 31 -118 14 -150 -16 -31 -57 -45 -91 -32 -50 19 -61 137 -16 182 24 24 71 25 93 0z m25 -377 c47 -10 66 -43 51 -89 -16 -47 -52 -65 -135 -65 -80 0 -105 19 -105 78 0 41 19 66 55 75 31 7 99 8 134 1z" fill="#ffffff"/>
<path d="M3235 856 c-72 -31 -112 -125 -103 -241 10 -114 66 -180 166 -192 82 -9 174 44 156 91 -5 14 -10 12 -35 -8 -84 -71 -194 -24 -206 88 l-6 45 134 3 134 3 -3 55 c-5 77 -33 127 -85 151 -49 22 -109 24 -152 5z m129 -56 c12 -11 21 -38 24 -69 l5 -51 -93 0 -93 0 7 43 c4 23 14 52 22 65 29 44 89 50 128 12z" fill="#ffffff"/>
<path d="M3755 861 c-11 -5 -31 -21 -45 -36 l-25 -27 -5 29 c-5 27 -7 28 -73 31 -53 2 -67 0 -67 -12 0 -8 13 -17 30 -21 39 -9 41 -20 38 -195 l-3 -145 -32 -15 c-18 -8 -33 -21 -33 -28 0 -10 25 -12 107 -10 110 3 142 17 81 34 l-33 10 -3 132 c-2 105 1 138 13 162 19 37 58 54 102 45 57 -10 63 -30 63 -217 l0 -168 70 0 c78 0 91 13 40 42 l-30 17 -1 133 c0 147 -10 191 -51 221 -29 22 -111 32 -143 18z" fill="#ffffff"/>
<path d="M4664 860 c-55 -17 -77 -67 -45 -99 26 -26 51 -27 51 -2 0 35 38 71 76 71 52 0 74 -28 74 -95 l0 -55 -53 0 c-84 0 -154 -25 -177 -63 -39 -64 -16 -152 47 -182 53 -26 107 -15 153 30 l37 37 7 -36 7 -36 54 0 c61 0 74 18 30 38 -25 12 -25 12 -26 149 0 153 -10 196 -52 227 -31 23 -131 32 -183 16z m156 -265 c0 -46 -5 -60 -27 -85 -60 -66 -143 -44 -143 39 0 66 43 97 138 100 l32 1 0 -55z" fill="#ffffff"/>
<path d="M2160 848 c0 -7 15 -20 33 -28 l32 -15 5 -152 c4 -134 7 -155 26 -180 46 -62 145 -68 209 -12 l34 30 3 -28 c3 -27 5 -28 66 -31 49 -2 62 0 62 12 0 8 -13 19 -30 25 l-30 10 0 190 0 191 -75 0 c-83 0 -98 -14 -42 -40 l32 -15 3 -126 c2 -117 1 -128 -20 -159 -45 -67 -131 -61 -155 10 -7 21 -12 96 -12 183 l-1 147 -70 0 c-49 0 -70 -4 -70 -12z" fill="#ffffff"/>
</g>
</svg>